<?xml version="1.0" encoding="UTF-8" standalone="no"?>
<svg width="46px" height="32px" viewBox="0 0 46 32" version="1.1" xmlns="http://www.w3.org/2000/svg" xmlns:xlink="http://www.w3.org/1999/xlink" xmlns:sketch="http://www.bohemiancoding.com/sketch/ns">
    <!-- Generator: Sketch 3.3.2 (12043) - http://www.bohemiancoding.com/sketch -->
    <title>fu-arrow-selected</title>
    <desc>Created with Sketch.</desc>
    <defs></defs>
    <g id="Page" stroke="none" stroke-width="1" fill="none" fill-rule="evenodd" sketch:type="MSPage">
        <g id="Artboard-1" sketch:type="MSArtboardGroup" transform="translate(-308.000000, -401.000000)">
            <g id="fu-arrow-selected" sketch:type="MSLayerGroup" transform="translate(308.000000, 401.000000)">
                <path d="M31.9,28 L43.9938589,28 C45.1017583,28 46,27.1084896 46,26.0087557 L46,1.99124431 C46,0.899897516 45.10182,0 43.9938589,0 L2.0061411,0 C0.898241717,0 0,0.891510444 0,1.99124431 L0,26.0087557 C0,27.1001025 0.898179965,28 2.0061411,28 L15.1,28 L23.5,32 L31.9,28 L31.9,28 Z" id="Rectangle-26" fill="#00B378" sketch:type="MSShapeGroup"></path>
                <path d="M27.6,15 L24.3,18.3 C23.9,18.7 23.9,19.3 24.3,19.7 C24.5,19.9 24.7,20 25,20 C25.3,20 25.5,19.9 25.7,19.7 L30.7,14.7 C30.9,14.5 31,14.25 31,14 C31,13.75 30.9,13.5 30.7,13.3 L25.7,8.3 C25.3,7.9 24.7,7.9 24.3,8.3 C23.9,8.7 23.9,9.3 24.3,9.7 L27.6,13 L14,13 C13.4,13 13,13.4 13,14 C13,14.6 13.4,15 14,15 L27.6,15 Z" id="Shape" fill="#FFFFFF" sketch:type="MSShapeGroup"></path>
            </g>
        </g>
    </g>
</svg>